<svg width="40" height="40" viewBox="0 0 40 40" fill="none" xmlns="http://www.w3.org/2000/svg">
<g clip-path="url(#clip0_1_881)">
<path d="M20.3727 1.75465C20.1381 1.63735 19.8619 1.63735 19.6273 1.75465L15.4607 3.83798C15.049 4.04381 14.8822 4.54437 15.088 4.95602C15.2938 5.36767 15.7944 5.53452 16.206 5.32869L20 3.4317L23.794 5.32869C24.2056 5.53452 24.7062 5.36767 24.912 4.95602C25.1178 4.54437 24.951 4.04381 24.5393 3.83798L20.3727 1.75465Z" fill="#6B7399"/>
<path fill-rule="evenodd" clip-rule="evenodd" d="M12.0393 5.92132C11.8047 5.80401 11.5286 5.80401 11.294 5.92132L2.9768 10.0799C2.91667 10.1084 2.86051 10.1439 2.80934 10.1853C2.77015 10.217 2.73413 10.252 2.70161 10.2898C2.57596 10.4358 2.49999 10.6257 2.49999 10.8333V19.9822C2.49976 19.9936 2.49976 20.0051 2.49999 20.0166V25.8333C2.49999 26.2936 2.87309 26.6667 3.33333 26.6667C3.79357 26.6667 4.16666 26.2936 4.16666 25.8333V21.3484L10.8333 24.6817V32.8183L3.70601 29.2546C3.29436 29.0488 2.7938 29.2157 2.58798 29.6273C2.38215 30.039 2.54901 30.5395 2.96065 30.7453L19.6273 39.0787C19.8619 39.196 20.1381 39.196 20.3727 39.0787L37.0225 30.7538C37.0618 30.7352 37.0994 30.7136 37.1351 30.6893C37.3375 30.5521 37.4639 30.3365 37.4935 30.1047C37.4987 30.0641 37.5009 30.023 37.5 29.9817V24.1667C37.5 23.7064 37.1269 23.3333 36.6667 23.3333C36.2064 23.3333 35.8333 23.7064 35.8333 24.1667V29.485L29.1667 32.8183V24.6817L37.0235 20.7533C37.0594 20.7363 37.0939 20.7167 37.1268 20.6949C37.3334 20.5584 37.4627 20.341 37.4932 20.1069C37.4986 20.0656 37.5009 20.0237 37.5 19.9817V10.8333C37.5 10.5716 37.3794 10.3381 37.1906 10.1853C37.1395 10.1439 37.0833 10.1084 37.0232 10.0799L28.706 5.92132C28.4714 5.80401 28.1953 5.80401 27.9607 5.92132L20 9.90164L12.0393 5.92132ZM4.16666 19.485V12.1817L10.8333 15.515V22.8183L4.16666 19.485ZM12.5 33.6516L19.1667 36.985V28.8484L12.5 25.515V33.6516ZM12.5 22.8183L19.1667 19.485V12.1817L12.5 15.515V22.8183ZM27.5 25.515V33.6516L20.8333 36.985V28.8484L27.5 25.515ZM35.8333 19.485L29.1667 22.8183V15.515L35.8333 12.1817V19.485ZM27.5 15.515L20.8333 12.1817V19.485L27.5 22.8183V15.515ZM11.6667 14.0683L5.19672 10.8333L11.6667 7.59837L18.1366 10.8333L11.6667 14.0683ZM21.8634 10.8333L28.3333 14.0683L34.8033 10.8333L28.3333 7.59837L21.8634 10.8333ZM13.5301 24.1667L20 27.4016L26.4699 24.1667L20 20.9317L13.5301 24.1667Z" fill="#6B7399"/>
</g>
<defs>
<clipPath id="clip0_1_881">
<rect width="40" height="40" fill="white"/>
</clipPath>
</defs>
</svg>
